<svg id="visual" viewBox="0 0 960 300" width="960" height="300" xmlns="http://www.w3.org/2000/svg" xmlns:xlink="http://www.w3.org/1999/xlink" version="1.1"><rect x="0" y="0" width="960" height="300" fill="#001220"></rect><path d="M0 124L22.8 116.8C45.7 109.7 91.3 95.3 137 88.8C182.7 82.3 228.3 83.7 274 89.7C319.7 95.7 365.3 106.3 411.2 110.8C457 115.3 503 113.7 548.8 107C594.7 100.3 640.3 88.7 686 90C731.7 91.3 777.3 105.7 823 108.2C868.7 110.7 914.3 101.3 937.2 96.7L960 92L960 0L937.2 0C914.3 0 868.7 0 823 0C777.3 0 731.7 0 686 0C640.3 0 594.7 0 548.8 0C503 0 457 0 411.2 0C365.3 0 319.7 0 274 0C228.3 0 182.7 0 137 0C91.3 0 45.7 0 22.8 0L0 0Z" fill="#c2614c"></path><path d="M0 82L22.8 79.2C45.7 76.3 91.3 70.7 137 73.3C182.7 76 228.3 87 274 86.7C319.7 86.3 365.3 74.7 411.2 69.8C457 65 503 67 548.8 71.5C594.7 76 640.3 83 686 88.2C731.7 93.3 777.3 96.7 823 94.3C868.7 92 914.3 84 937.2 80L960 76L960 0L937.2 0C914.3 0 868.7 0 823 0C777.3 0 731.7 0 686 0C640.3 0 594.7 0 548.8 0C503 0 457 0 411.2 0C365.3 0 319.7 0 274 0C228.3 0 182.7 0 137 0C91.3 0 45.7 0 22.8 0L0 0Z" fill="#d16b54"></path><path d="M0 77L22.8 74.2C45.7 71.3 91.3 65.7 137 62.2C182.7 58.7 228.3 57.3 274 58.5C319.7 59.7 365.3 63.3 411.2 66.2C457 69 503 71 548.8 70.2C594.7 69.3 640.3 65.7 686 63.3C731.7 61 777.3 60 823 61.3C868.7 62.7 914.3 66.3 937.2 68.2L960 70L960 0L937.2 0C914.3 0 868.7 0 823 0C777.3 0 731.7 0 686 0C640.3 0 594.7 0 548.8 0C503 0 457 0 411.2 0C365.3 0 319.7 0 274 0C228.3 0 182.7 0 137 0C91.3 0 45.7 0 22.8 0L0 0Z" fill="#e0755d"></path><path d="M0 29L22.8 29.5C45.7 30 91.3 31 137 35C182.7 39 228.3 46 274 49.5C319.7 53 365.3 53 411.2 49.5C457 46 503 39 548.8 36C594.7 33 640.3 34 686 34C731.7 34 777.3 33 823 35.8C868.7 38.7 914.3 45.3 937.2 48.7L960 52L960 0L937.2 0C914.3 0 868.7 0 823 0C777.3 0 731.7 0 686 0C640.3 0 594.7 0 548.8 0C503 0 457 0 411.2 0C365.3 0 319.7 0 274 0C228.3 0 182.7 0 137 0C91.3 0 45.7 0 22.8 0L0 0Z" fill="#ef7f66"></path><path d="M0 24L22.8 23.3C45.7 22.7 91.3 21.3 137 20.3C182.7 19.3 228.3 18.7 274 21.3C319.7 24 365.3 30 411.2 32C457 34 503 32 548.8 31.7C594.7 31.3 640.3 32.7 686 30.5C731.7 28.3 777.3 22.7 823 20.7C868.7 18.7 914.3 20.3 937.2 21.2L960 22L960 0L937.2 0C914.3 0 868.7 0 823 0C777.3 0 731.7 0 686 0C640.3 0 594.7 0 548.8 0C503 0 457 0 411.2 0C365.3 0 319.7 0 274 0C228.3 0 182.7 0 137 0C91.3 0 45.7 0 22.8 0L0 0Z" fill="#ff896f"></path></svg>