<svg id="visual" viewBox="0 0 960 600" width="960" height="600" xmlns="http://www.w3.org/2000/svg" xmlns:xlink="http://www.w3.org/1999/xlink" version="1.1"><path d="M0 228L22.8 223C45.7 218 91.3 208 137 206.8C182.7 205.7 228.3 213.3 274 216C319.7 218.7 365.3 216.3 411.2 211.3C457 206.3 503 198.7 548.8 192C594.7 185.3 640.3 179.7 686 185.7C731.7 191.7 777.3 209.3 823 207.2C868.7 205 914.3 183 937.2 172L960 161L960 0L937.2 0C914.3 0 868.7 0 823 0C777.3 0 731.7 0 686 0C640.3 0 594.7 0 548.8 0C503 0 457 0 411.2 0C365.3 0 319.7 0 274 0C228.3 0 182.7 0 137 0C91.3 0 45.7 0 22.8 0L0 0Z" fill="#b75f4b"></path><path d="M0 177L22.8 169.3C45.7 161.7 91.3 146.3 137 148.5C182.7 150.7 228.3 170.3 274 174C319.7 177.7 365.3 165.3 411.2 164.5C457 163.7 503 174.3 548.8 173.3C594.7 172.3 640.3 159.7 686 159.2C731.7 158.7 777.3 170.3 823 178.7C868.7 187 914.3 192 937.2 194.5L960 197L960 0L937.2 0C914.3 0 868.7 0 823 0C777.3 0 731.7 0 686 0C640.3 0 594.7 0 548.8 0C503 0 457 0 411.2 0C365.3 0 319.7 0 274 0C228.3 0 182.7 0 137 0C91.3 0 45.7 0 22.8 0L0 0Z" fill="#c86954"></path><path d="M0 88L22.8 94.5C45.7 101 91.3 114 137 118.7C182.7 123.3 228.3 119.7 274 116.2C319.7 112.7 365.3 109.3 411.2 105.2C457 101 503 96 548.8 103.7C594.7 111.3 640.3 131.7 686 138C731.7 144.3 777.3 136.7 823 129.5C868.7 122.3 914.3 115.7 937.2 112.3L960 109L960 0L937.2 0C914.3 0 868.7 0 823 0C777.3 0 731.7 0 686 0C640.3 0 594.7 0 548.8 0C503 0 457 0 411.2 0C365.3 0 319.7 0 274 0C228.3 0 182.7 0 137 0C91.3 0 45.7 0 22.8 0L0 0Z" fill="#da745d"></path><path d="M0 89L22.8 93.5C45.7 98 91.3 107 137 106.7C182.7 106.3 228.3 96.7 274 96.2C319.7 95.7 365.3 104.3 411.2 105.7C457 107 503 101 548.8 101C594.7 101 640.3 107 686 108.7C731.7 110.3 777.3 107.7 823 104C868.7 100.3 914.3 95.7 937.2 93.3L960 91L960 0L937.2 0C914.3 0 868.7 0 823 0C777.3 0 731.7 0 686 0C640.3 0 594.7 0 548.8 0C503 0 457 0 411.2 0C365.3 0 319.7 0 274 0C228.3 0 182.7 0 137 0C91.3 0 45.7 0 22.8 0L0 0Z" fill="#ec7e66"></path><path d="M0 25L22.8 25.8C45.7 26.7 91.3 28.3 137 29.8C182.7 31.3 228.3 32.7 274 39.8C319.7 47 365.3 60 411.2 62.7C457 65.3 503 57.7 548.8 51C594.7 44.3 640.3 38.7 686 39.7C731.7 40.7 777.3 48.3 823 49.3C868.7 50.3 914.3 44.7 937.2 41.8L960 39L960 0L937.2 0C914.3 0 868.7 0 823 0C777.3 0 731.7 0 686 0C640.3 0 594.7 0 548.8 0C503 0 457 0 411.2 0C365.3 0 319.7 0 274 0C228.3 0 182.7 0 137 0C91.3 0 45.7 0 22.8 0L0 0Z" fill="#ff896f"></path></svg>