<svg id="visual" viewBox="0 0 1000 300" width="1000" height="300" xmlns="http://www.w3.org/2000/svg" xmlns:xlink="http://www.w3.org/1999/xlink" version="1.1"><path d="M0 98L143 83L286 103L429 106L571 97L714 106L857 113L1000 98L1000 0L857 0L714 0L571 0L429 0L286 0L143 0L0 0Z" fill="#f5730a"></path><path d="M0 59L143 82L286 87L429 101L571 70L714 100L857 77L1000 67L1000 0L857 0L714 0L571 0L429 0L286 0L143 0L0 0Z" fill="#fa772f"></path><path d="M0 77L143 62L286 52L429 47L571 60L714 55L857 61L1000 80L1000 0L857 0L714 0L571 0L429 0L286 0L143 0L0 0Z" fill="#fe7c47"></path><path d="M0 56L143 58L286 50L429 54L571 33L714 30L857 47L1000 50L1000 0L857 0L714 0L571 0L429 0L286 0L143 0L0 0Z" fill="#ff825c"></path><path d="M0 22L143 23L286 30L429 20L571 20L714 26L857 35L1000 12L1000 0L857 0L714 0L571 0L429 0L286 0L143 0L0 0Z" fill="#ff896f"></path></svg>