<svg id="visual" viewBox="0 0 960 600" width="960" height="600" xmlns="http://www.w3.org/2000/svg" xmlns:xlink="http://www.w3.org/1999/xlink" version="1.1"><path d="M0 174L137 172L274 238L411 248L549 169L686 167L823 246L960 186L960 0L823 0L686 0L549 0L411 0L274 0L137 0L0 0Z" fill="#e7791e"></path><path d="M0 182L137 200L274 135L411 190L549 137L686 145L823 147L960 150L960 0L823 0L686 0L549 0L411 0L274 0L137 0L0 0Z" fill="#ef7b37"></path><path d="M0 122L137 146L274 158L411 98L549 125L686 135L823 155L960 94L960 0L823 0L686 0L549 0L411 0L274 0L137 0L0 0Z" fill="#f67f4b"></path><path d="M0 117L137 110L274 85L411 97L549 103L686 60L823 89L960 112L960 0L823 0L686 0L549 0L411 0L274 0L137 0L0 0Z" fill="#fb845e"></path><path d="M0 30L137 52L274 24L411 31L549 32L686 58L823 47L960 37L960 0L823 0L686 0L549 0L411 0L274 0L137 0L0 0Z" fill="#ff896f"></path></svg>