<svg id="visual" viewBox="0 0 960 600" width="960" height="600" xmlns="http://www.w3.org/2000/svg" xmlns:xlink="http://www.w3.org/1999/xlink" version="1.1"><path d="M0 157L137 212L274 240L411 248L549 231L686 234L823 189L960 174L960 0L823 0L686 0L549 0L411 0L274 0L137 0L0 0Z" fill="#e7791e"></path><path d="M0 190L137 174L274 137L411 154L549 151L686 187L823 199L960 173L960 0L823 0L686 0L549 0L411 0L274 0L137 0L0 0Z" fill="#ef7b37"></path><path d="M0 101L137 87L274 99L411 117L549 99L686 111L823 123L960 147L960 0L823 0L686 0L549 0L411 0L274 0L137 0L0 0Z" fill="#f67f4b"></path><path d="M0 61L137 112L274 97L411 115L549 90L686 90L823 106L960 83L960 0L823 0L686 0L549 0L411 0L274 0L137 0L0 0Z" fill="#fb845e"></path><path d="M0 71L137 64L274 47L411 62L549 27L686 64L823 32L960 64L960 0L823 0L686 0L549 0L411 0L274 0L137 0L0 0Z" fill="#ff896f"></path></svg>