<svg id="visual" viewBox="0 0 1000 300" width="1000" height="300" xmlns="http://www.w3.org/2000/svg" xmlns:xlink="http://www.w3.org/1999/xlink" version="1.1"><path d="M0 98L143 102L286 120L429 79L571 100L714 82L857 117L1000 120L1000 0L857 0L714 0L571 0L429 0L286 0L143 0L0 0Z" fill="#f5730a"></path><path d="M0 95L143 70L286 59L429 95L571 100L714 65L857 73L1000 94L1000 0L857 0L714 0L571 0L429 0L286 0L143 0L0 0Z" fill="#fa772f"></path><path d="M0 56L143 47L286 54L429 74L571 70L714 57L857 73L1000 63L1000 0L857 0L714 0L571 0L429 0L286 0L143 0L0 0Z" fill="#fe7c47"></path><path d="M0 52L143 29L286 55L429 48L571 45L714 43L857 49L1000 29L1000 0L857 0L714 0L571 0L429 0L286 0L143 0L0 0Z" fill="#ff825c"></path><path d="M0 16L143 19L286 22L429 18L571 14L714 18L857 28L1000 22L1000 0L857 0L714 0L571 0L429 0L286 0L143 0L0 0Z" fill="#ff896f"></path></svg>