<svg id="visual" viewBox="0 0 1000 600" width="1000" height="600" xmlns="http://www.w3.org/2000/svg" xmlns:xlink="http://www.w3.org/1999/xlink" version="1.1"><path d="M0 206L143 192L286 154L429 168L571 163L714 150L857 228L1000 197L1000 0L857 0L714 0L571 0L429 0L286 0L143 0L0 0Z" fill="#c16e5c"></path><path d="M0 134L143 143L286 155L429 177L571 187L714 138L857 146L1000 151L1000 0L857 0L714 0L571 0L429 0L286 0L143 0L0 0Z" fill="#d07461"></path><path d="M0 132L143 100L286 102L429 115L571 111L714 122L857 98L1000 146L1000 0L857 0L714 0L571 0L429 0L286 0L143 0L0 0Z" fill="#e07b65"></path><path d="M0 78L143 105L286 113L429 55L571 105L714 57L857 101L1000 68L1000 0L857 0L714 0L571 0L429 0L286 0L143 0L0 0Z" fill="#ef826a"></path><path d="M0 45L143 72L286 36L429 51L571 55L714 49L857 52L1000 64L1000 0L857 0L714 0L571 0L429 0L286 0L143 0L0 0Z" fill="#ff896f"></path></svg>