<svg id="visual" viewBox="0 0 1000 600" width="1000" height="600" xmlns="http://www.w3.org/2000/svg" xmlns:xlink="http://www.w3.org/1999/xlink" version="1.1"><path d="M0 205L143 175L286 171L429 238L571 156L714 175L857 169L1000 222L1000 0L857 0L714 0L571 0L429 0L286 0L143 0L0 0Z" fill="#c16e5c"></path><path d="M0 141L143 155L286 187L429 134L571 156L714 126L857 130L1000 185L1000 0L857 0L714 0L571 0L429 0L286 0L143 0L0 0Z" fill="#d07461"></path><path d="M0 141L143 116L286 151L429 112L571 105L714 146L857 153L1000 120L1000 0L857 0L714 0L571 0L429 0L286 0L143 0L0 0Z" fill="#e07b65"></path><path d="M0 82L143 84L286 58L429 78L571 70L714 108L857 106L1000 102L1000 0L857 0L714 0L571 0L429 0L286 0L143 0L0 0Z" fill="#ef826a"></path><path d="M0 71L143 68L286 39L429 44L571 55L714 36L857 72L1000 58L1000 0L857 0L714 0L571 0L429 0L286 0L143 0L0 0Z" fill="#ff896f"></path></svg>