<svg width="473" height="331" viewBox="0 0 473 331" fill="none" xmlns="http://www.w3.org/2000/svg">
<rect width="473" height="331" fill="#F5F5F5"/>
<g id="Cover">
<g id="uncover">
<g id="&#240;&#159;&#166;&#134; icon &#34;bookmark outline&#34;">
<path id="Vector" d="M175 94.8C175 85.01 181.859 77 190.243 77H281.699C285.741 77 289.618 78.8754 292.477 82.2135C295.335 85.5516 296.941 90.0791 296.941 94.8V255L235.971 219.4L175 255V94.8ZM190.243 94.8V228.3L235.971 201.6L281.699 228.3V94.8H190.243Z" fill="#FF896F"/>
</g>
<g id="&#240;&#159;&#166;&#134; icon &#34;star full&#34;">
<path id="Vector_2" d="M236.254 169.675L221.883 177.23L224.628 161.227L213 149.895L229.068 147.56L236.254 133L243.44 147.56L259.508 149.895L247.88 161.227L250.626 177.23L236.254 169.675Z" fill="#FF896F"/>
</g>
</g>
<g id="&#240;&#159;&#166;&#134; icon &#34;bookmark&#34;">
<path id="Vector_3" d="M184 106.836C184 98.6764 189.826 92 196.946 92H274.621C278.055 92 281.348 93.5631 283.775 96.3455C286.203 99.1278 287.567 102.902 287.567 106.836V240.364L235.784 210.691L184 240.364V106.836Z" fill="#FF896F"/>
</g>
<g id="&#240;&#159;&#166;&#134; icon &#34;star full&#34;_2">
<path id="Vector_4" d="M311.254 51.6747L296.883 59.2297L299.628 43.2273L288 31.8948L304.068 29.5598L311.254 15L318.44 29.5598L334.508 31.8948L322.88 43.2273L325.626 59.2297L311.254 51.6747Z" fill="#FF896F"/>
</g>
<g id="&#240;&#159;&#166;&#134; icon &#34;star full&#34;_3">
<path id="Vector_5" d="M337.535 115.46L321.344 114.247L332.156 102.134L328.304 86.3605L343.167 92.8994L356.978 84.3636L355.352 100.519L367.739 111.017L351.871 114.461L345.716 129.485L337.535 115.46Z" fill="#FF896F"/>
</g>
<g id="&#240;&#159;&#166;&#134; icon &#34;star full&#34;_4">
<path id="Vector_6" d="M151.254 51.6747L136.883 59.2297L139.628 43.2273L128 31.8948L144.068 29.5598L151.254 15L158.44 29.5598L174.508 31.8948L162.88 43.2273L165.626 59.2297L151.254 51.6747Z" fill="#FF896F"/>
</g>
<g id="&#240;&#159;&#166;&#134; icon &#34;star full&#34;_5">
<path id="Vector_7" d="M134.931 115.486L126.704 129.483L120.599 114.439L104.743 110.941L117.165 100.484L115.593 84.3241L129.376 92.9065L144.261 86.4179L140.356 102.178L151.126 114.328L134.931 115.486Z" fill="#FF896F"/>
</g>
</g>
</svg>
